{
  "accessors": [
    {
      "bufferView": 1,
      "componentType": 5126,
      "count": 4928,
      "max": [
        9.771553039550781,
        134.67242431640625,
        4.0
      ],
      "min": [
        -98.13541412353516,
        -5.038688659667969,
        0.0
      ],
      "type": "VEC3"
    },
    {
      "bufferView": 1,
      "byteOffset": 59136,
      "componentType": 5126,
      "count": 4928,
      "max": [
        1.0,
        1.0,
        1.0
      ],
      "min": [
        -1.0,
        -1.0,
        -1.0
      ],
      "type": "VEC3"
    },
    {
      "bufferView": 0,
      "componentType": 5125,
      "count": 13512,
      "type": "SCALAR"
    },
    {
      "bufferView": 2,
      "componentType": 5126,
      "count": 601,
      "max": [
        20.0
      ],
      "min": [
        0.0
      ],
      "type": "SCALAR"
    },
    {
      "bufferView": 3,
      "componentType": 5126,
      "count": 601,
      "max": [
        6.091090024322029e-17,
        1.0,
        1.8161277097215796e-16,
        1.0
      ],
      "min": [
        -1.3473254136628664e-16,
        -0.863395631313324,
        -1.8161277097215796e-16,
        -0.5
      ],
      "type": "VEC4"
    }
  ],
  "animations": [
    {
      "channels": [
        {
          "sampler": 0,
          "target": {
            "node": 4,
            "path": "rotation"
          }
        }
      ],
      "name": "Take 001",
      "samplers": [
        {
          "input": 3,
          "interpolation": "LINEAR",
          "output": 4
        }
      ]
    }
  ],
  "asset": {
    "extras": {
      "author": "Oscarjonsson (https://sketchfab.com/Oscarjonsson)",
      "license": "CC-BY-4.0 (http://creativecommons.org/licenses/by/4.0/)",
      "source": "https://sketchfab.com/3d-models/tesla-logo-c3b820f161864a80bae800f94c7ed1d1",
      "title": "Tesla Logo"
    },
    "generator": "Sketchfab-12.67.0",
    "version": "2.0"
  },
  "bufferViews": [
    {
      "buffer": 0,
      "byteLength": 54048,
      "name": "floatBufferViews",
      "target": 34963
    },
    {
      "buffer": 0,
      "byteLength": 118272,
      "byteOffset": 54048,
      "byteStride": 12,
      "name": "floatBufferViews",
      "target": 34962
    },
    {
      "buffer": 0,
      "byteLength": 2404,
      "byteOffset": 172320,
      "name": "floatBufferViews"
    },
    {
      "buffer": 0,
      "byteLength": 9616,
      "byteOffset": 174724,
      "byteStride": 16,
      "name": "floatBufferViews"
    }
  ],
  "buffers": [
    {
      "byteLength": 184340,
      "uri": "scene.bin"
    }
  ],
  "materials": [
    {
      "doubleSided": true,
      "name": "Logotype",
      "pbrMetallicRoughness": {
        "roughnessFactor": 0.0
      }
    }
  ],
  "meshes": [
    {
      "name": "Line011_Logotype_0",
      "primitives": [
        {
          "attributes": {
            "NORMAL": 1,
            "POSITION": 0
          },
          "indices": 2,
          "material": 0,
          "mode": 4
        }
      ]
    }
  ],
  "nodes": [
    {
      "children": [
        1
      ],
      "matrix": [
        -0.002119877575563686,
        2.7077176306656844e-18,
        -0.0051222088194448345,
        0.0,
        -0.0051222088194448345,
        -1.3621775980648812e-18,
        0.002119877575563686,
        0.0,
        -2.232015636679966e-19,
        0.005543546285480261,
        3.0228205804584434e-18,
        0.0,
        2.0465791749302298e-05,
        6.936171464295415e-22,
        -3.12377392219787e-06,
        1.0
      ],
      "name": "Sketchfab_model"
    },
    {
      "children": [
        2
      ],
      "matrix": [
        1.0,
        0.0,
        0.0,
        0.0,
        0.0,
        0.0,
        1.0,
        0.0,
        0.0,
        -1.0,
        0.0,
        0.0,
        0.0,
        0.0,
        0.0,
        1.0
      ],
      "name": "40da9fb4905349aeb701b20964aed78b.fbx"
    },
    {
      "children": [
        3
      ],
      "name": "Object_2"
    },
    {
      "children": [
        4
      ],
      "name": "RootNode"
    },
    {
      "children": [
        5
      ],
      "name": "Line011",
      "rotation": [
        -8.363814529843694e-09,
        0.9238795042037964,
        -2.0192025829146587e-08,
        -0.38268357515335083
      ]
    },
    {
      "children": [
        6
      ],
      "matrix": [
        1.0,
        0.0,
        -0.0,
        0.0,
        0.0,
        1.0,
        0.0,
        0.0,
        0.0,
        0.0,
        1.0,
        0.0,
        44.18193054199219,
        -64.81686401367188,
        -1.9999971389770508,
        1.0
      ],
      "name": "Object_5"
    },
    {
      "mesh": 0,
      "name": "Line011_Logotype_0"
    }
  ],
  "scene": 0,
  "scenes": [
    {
      "name": "Sketchfab_Scene",
      "nodes": [
        0
      ]
    }
  ]
}
